<?xml version="1.0" encoding="UTF-8"?>
<svg version="1.1" xmlns="http://www.w3.org/2000/svg" width="835" height="291">
<path d="M0 0 C11.84863189 4.68965115 19.95230761 20.57180565 24.859375 31.515625 C29.06719689 42.04117376 29.06719689 42.04117376 29.23046875 46.8828125 C27.39453125 49.953125 27.39453125 49.953125 24.85546875 53.0078125 C20.99646857 57.44199448 20.99646857 57.44199448 19.23046875 62.8828125 C21.819987 60.39687498 24.20132404 57.78640941 26.54296875 55.0703125 C37.2623331 42.82934346 48.68010177 35.08533282 65.23046875 32.8828125 C74.53534659 32.32857006 84.48701495 32.23857359 93.23046875 35.8828125 C94.5859375 37.9921875 94.5859375 37.9921875 95.23046875 39.8828125 C94.73417969 40.26050781 94.23789063 40.63820312 93.7265625 41.02734375 C84.11888889 48.81192939 79.50524826 58.87310774 75.29296875 70.2578125 C66.96014205 91.50292212 66.96014205 91.50292212 62.23046875 95.8828125 C58.33774329 97.41551872 54.62651081 98.22250197 50.52734375 98.9609375 C36.88888288 101.54989147 24.6683698 110.4936301 16.3359375 121.3515625 C10.62932695 130.25098553 6.76806391 140.31010774 6.23046875 150.8828125 C6.76671875 150.0371875 7.30296875 149.1915625 7.85546875 148.3203125 C17.64447016 133.87309662 32.25922415 124.71271255 49.23046875 120.8828125 C53.88477312 120.10466339 58.54683307 119.45645664 63.23046875 118.8828125 C45.10656654 118.37147984 33.05028008 122.51704282 18.23046875 132.8828125 C16.23670445 134.22578637 14.23428818 135.55483749 12.23046875 136.8828125 C15.40844456 124.48870685 25.58773751 113.85093617 36.296875 107.44921875 C49.32783753 100.49127471 62.69604784 96.21466423 77.48046875 99.9453125 C86.71813573 103.154502 93.71572249 110.22546958 98.2265625 118.76953125 C100.80005047 124.44598079 101.35539552 129.5150625 101.29296875 135.6953125 C101.28394531 136.85675781 101.27492187 138.01820313 101.265625 139.21484375 C101.24822266 140.53548828 101.24822266 140.53548828 101.23046875 141.8828125 C97.51306877 141.37733035 94.59721543 140.77499082 91.35546875 138.8828125 C84.07167428 135.1309712 78.3775567 135.65643522 70.66796875 137.71875 C68.12443438 138.58008323 65.83581425 139.4816124 63.41796875 140.609375 C53.39698132 145.25409966 44.96594828 146.73809317 33.91015625 146.8125 C26.5376239 146.67424525 26.5376239 146.67424525 19.97265625 149.52734375 C8.30024107 163.08004338 7.11928638 178.76137814 6.23046875 195.8828125 C8.91397538 193.40572946 10.85106821 190.63463965 12.91796875 187.6328125 C20.37437376 177.35653068 29.55510609 170.86726553 42.13671875 168.16015625 C49.48342904 167.18699127 56.16347813 167.74938137 63.23046875 169.8828125 C57.61987814 182.40392648 40.19224011 191.88898669 27.97265625 196.55859375 C25.87296712 197.34046068 23.77235983 198.09802388 21.64672852 198.80639648 C16.78288515 200.4643703 12.90695042 202.40453524 9.97265625 206.7421875 C9.68648438 207.36609375 9.4003125 207.99 9.10546875 208.6328125 C8.78835937 209.31859375 8.47125 210.004375 8.14453125 210.7109375 C6.73181948 214.06763727 5.45543846 217.4528973 4.23046875 220.8828125 C2.25046875 220.8828125 0.27046875 220.8828125 -1.76953125 220.8828125 C-1.7945874 219.89063721 -1.81964355 218.89846191 -1.84545898 217.8762207 C-1.94090991 214.1318255 -2.04077169 210.38755783 -2.1418457 206.64331055 C-2.18468215 205.03461731 -2.22638324 203.42589337 -2.2668457 201.81713867 C-2.59603937 173.33332977 -2.59603937 173.33332977 -15.04101562 148.31347656 C-17.32611199 146.42213974 -18.69447706 146.50067474 -21.63671875 146.4765625 C-22.59811768 146.45706543 -23.5595166 146.43756836 -24.55004883 146.41748047 C-25.57122803 146.40604004 -26.59240723 146.39459961 -27.64453125 146.3828125 C-42.75611399 145.93831996 -54.99811984 142.32675791 -68.86938477 136.59130859 C-76.43044737 133.77206104 -86.01281215 133.15894017 -93.57421875 136.2578125 C-95.82807885 137.34207482 -98.05932199 138.47542962 -100.2578125 139.66796875 C-101.08667969 140.06886719 -101.91554687 140.46976563 -102.76953125 140.8828125 C-103.42953125 140.5528125 -104.08953125 140.2228125 -104.76953125 139.8828125 C-107.1860897 131.70369158 -104.36465747 122.46887294 -100.58203125 115.0703125 C-94.94819773 105.93210038 -87.11701873 99.83214591 -76.70703125 97.0703125 C-59.12234259 95.94788556 -41.87755672 101.51649208 -28.51953125 113.2578125 C-24.35820499 117.18647675 -20.1359112 121.2345329 -16.76953125 125.8828125 C-16.76953125 126.5428125 -16.76953125 127.2028125 -16.76953125 127.8828125 C-20.4076817 126.51277026 -23.68808941 124.83190252 -27.08203125 122.9453125 C-37.62782803 117.64643924 -49.09987235 115.83073265 -60.76953125 117.8828125 C-59.15498047 118.01236328 -59.15498047 118.01236328 -57.5078125 118.14453125 C-40.00775926 119.74660628 -23.93810142 125.65903422 -11.76953125 138.8828125 C-9.22518197 142.43645163 -6.93808016 146.08959511 -4.76953125 149.8828125 C-6.01343247 145.78631089 -7.51470457 142.33122053 -9.76953125 138.6953125 C-10.54296875 137.43654297 -10.54296875 137.43654297 -11.33203125 136.15234375 C-12.45421694 134.38063211 -13.60621201 132.62779136 -14.76953125 130.8828125 C-15.14816308 129.55621922 -15.49975355 128.22176856 -15.83203125 126.8828125 C-19.30716857 116.24992967 -28.40760199 108.43671378 -37.76953125 102.8828125 C-44.12059385 99.73196149 -50.63582641 97.4418433 -57.515625 95.75390625 C-65.56710532 92.64215563 -69.79608228 84.24299819 -73.16845703 76.79199219 C-74.44003494 73.63052362 -75.65176312 70.45445304 -76.83203125 67.2578125 C-82.17684008 52.79842938 -82.17684008 52.79842938 -92.64453125 41.8203125 C-93.42570312 41.25183594 -94.206875 40.68335938 -95.01171875 40.09765625 C-95.59179688 39.69675781 -96.171875 39.29585937 -96.76953125 38.8828125 C-91.92481516 33.60936047 -87.06839774 33.12024455 -80.1875 32.625 C-61.94276391 32.08786351 -44.95671934 37.23875367 -31.20703125 49.5703125 C-29.72276315 51.00254449 -28.24302697 52.43950012 -26.76953125 53.8828125 C-24.79805024 55.58852042 -22.78969012 57.23478816 -20.76953125 58.8828125 C-21.86223136 55.50537581 -22.93127143 53.70951945 -25.39453125 51.0703125 C-28.2692166 47.21218217 -28.27387341 44.48413672 -27.76953125 39.8828125 C-23.6408517 25.08432972 -14.73568104 11.52438281 -3.76953125 0.8828125 C-1.76953125 -0.1171875 -1.76953125 -0.1171875 0 0 Z M-8.76953125 56.8828125 C-8.76953125 60.1828125 -8.76953125 63.4828125 -8.76953125 66.8828125 C-9.69765625 66.8415625 -10.62578125 66.8003125 -11.58203125 66.7578125 C-14.92762844 66.61144911 -14.92762844 66.61144911 -17.76953125 68.8828125 C-17.99640625 69.7078125 -18.22328125 70.5328125 -18.45703125 71.3828125 C-19.76953125 73.8828125 -19.76953125 73.8828125 -21.671875 74.65234375 C-23.68616539 75.14441117 -25.72789262 75.52058629 -27.76953125 75.8828125 C-27.43953125 76.8728125 -27.10953125 77.8628125 -26.76953125 78.8828125 C-23.79953125 78.8828125 -20.82953125 78.8828125 -17.76953125 78.8828125 C-17.76953125 81.5228125 -17.76953125 84.1628125 -17.76953125 86.8828125 C-19.78776042 86.78515625 -21.80598958 86.6875 -23.82421875 86.58984375 C-24.78714844 86.73486328 -24.78714844 86.73486328 -25.76953125 86.8828125 C-26.42953125 87.8728125 -27.08953125 88.8628125 -27.76953125 89.8828125 C-26.78685266 91.08842434 -26.78685266 91.08842434 -24.921875 90.98046875 C-22.87109375 90.94791667 -20.8203125 90.91536458 -18.76953125 90.8828125 C-18.69605469 92.03910156 -18.69605469 92.03910156 -18.62109375 93.21875 C-18.54632813 94.22164062 -18.4715625 95.22453125 -18.39453125 96.2578125 C-18.32492188 97.25554687 -18.2553125 98.25328125 -18.18359375 99.28125 C-18.00589161 102.03790129 -18.00589161 102.03790129 -15.76953125 103.8828125 C-12.18609149 104.04958532 -12.18609149 104.04958532 -8.76953125 103.8828125 C-8.78113281 104.58148438 -8.79273438 105.28015625 -8.8046875 106 C-8.81371094 106.91007812 -8.82273437 107.82015625 -8.83203125 108.7578125 C-8.84363281 109.66273438 -8.85523438 110.56765625 -8.8671875 111.5 C-8.93202382 113.899671 -8.93202382 113.899671 -7.76953125 115.8828125 C-6.77953125 115.8828125 -5.78953125 115.8828125 -4.76953125 115.8828125 C-4.10953125 112.2528125 -3.44953125 108.6228125 -2.76953125 104.8828125 C0.69546875 104.3878125 0.69546875 104.3878125 4.23046875 103.8828125 C4.72546875 109.8228125 4.72546875 109.8228125 5.23046875 115.8828125 C6.55046875 115.8828125 7.87046875 115.8828125 9.23046875 115.8828125 C9.23046875 112.2528125 9.23046875 108.6228125 9.23046875 104.8828125 C11.24869792 104.72005208 13.26692708 104.55729167 15.28515625 104.39453125 C17.62566091 104.00888214 17.62566091 104.00888214 19.23046875 100.8828125 C19.47197648 98.36696359 19.47197648 98.36696359 19.35546875 95.6953125 C19.33742187 94.79425781 19.319375 93.89320312 19.30078125 92.96484375 C19.27757812 92.27777344 19.254375 91.59070313 19.23046875 90.8828125 C21.54046875 90.8828125 23.85046875 90.8828125 26.23046875 90.8828125 C26.56046875 89.8928125 26.89046875 88.9028125 27.23046875 87.8828125 C26.11671875 87.6971875 25.00296875 87.5115625 23.85546875 87.3203125 C22.65921875 86.8459375 21.46296875 86.3715625 20.23046875 85.8828125 C18.79296875 82.2578125 18.79296875 82.2578125 18.23046875 78.8828125 C21.20046875 78.8828125 24.17046875 78.8828125 27.23046875 78.8828125 C27.23046875 77.5628125 27.23046875 76.2428125 27.23046875 74.8828125 C24.59046875 74.5528125 21.95046875 74.2228125 19.23046875 73.8828125 C19.10671875 73.0990625 18.98296875 72.3153125 18.85546875 71.5078125 C18.43928882 68.74223428 18.43928882 68.74223428 16.23046875 66.8828125 C12.64702899 66.71603968 12.64702899 66.71603968 9.23046875 66.8828125 C9.23046875 63.9128125 9.23046875 60.9428125 9.23046875 57.8828125 C7.91046875 57.5528125 6.59046875 57.2228125 5.23046875 56.8828125 C4.90046875 60.1828125 4.57046875 63.4828125 4.23046875 66.8828125 C1.59046875 66.8828125 -1.04953125 66.8828125 -3.76953125 66.8828125 C-3.74890625 65.7896875 -3.72828125 64.6965625 -3.70703125 63.5703125 C-3.58408673 59.93897059 -3.58408673 59.93897059 -4.76953125 56.8828125 C-6.08953125 56.8828125 -7.40953125 56.8828125 -8.76953125 56.8828125 Z M-47.76953125 66.8828125 C-47.44082031 67.32109375 -47.11210938 67.759375 -46.7734375 68.2109375 C-46.29777344 68.84515625 -45.82210937 69.479375 -45.33203125 70.1328125 C-44.79191406 70.85082031 -44.25179687 71.56882812 -43.6953125 72.30859375 C-42.26792096 74.21660799 -40.85011518 76.1318015 -39.4375 78.05078125 C-39.03781006 78.5912207 -38.63812012 79.13166016 -38.22631836 79.68847656 C-37.05600351 81.27099415 -35.88927115 82.85615913 -34.72265625 84.44140625 C-33.00279606 86.94078767 -33.00279606 86.94078767 -30.76953125 87.8828125 C-30.95407712 80.68552342 -35.81398504 75.77912933 -40.71875 70.97265625 C-43.8091096 67.90469712 -43.8091096 67.90469712 -47.76953125 66.8828125 Z M41.91796875 71.7578125 C37.42257135 76.31846567 34.67406551 81.00098914 32.23046875 86.8828125 C33.22046875 86.8828125 34.21046875 86.8828125 35.23046875 86.8828125 C37.21348885 84.70530417 37.21348885 84.70530417 39.10546875 81.8828125 C39.80414063 80.88636719 40.5028125 79.88992187 41.22265625 78.86328125 C43.65423327 75.25376128 45.981037 71.60843383 48.23046875 67.8828125 C45.15598354 67.8828125 44.08450476 69.65317752 41.91796875 71.7578125 Z " fill="#000000" transform="translate(146.76953125,32.1171875)"/>
<path d="M0 0 C-0.33 17.16 -0.66 34.32 -1 52 C3.62 49.03 8.24 46.06 13 43 C21.63764867 38.68117566 32.6144031 37.60067001 41.9765625 40.2109375 C49.61547421 43.18981813 54.92071778 47.82408455 58.60913086 55.23168945 C60.93970496 61.71344012 60.44093948 68.68363822 60.44140625 75.48046875 C60.45319548 76.9816465 60.46656346 78.48281259 60.48143005 79.98396301 C60.51744553 83.91599656 60.53776899 87.84792674 60.55297852 91.78009033 C60.57790748 98.08312232 60.617577 104.38592615 60.67487907 110.6887455 C60.69114625 112.88289945 60.69497908 115.0768352 60.69789124 117.27104187 C60.70766977 118.61974461 60.71793341 119.96844394 60.72875977 121.31713867 C60.73517235 123.07630867 60.73517235 123.07630867 60.74171448 124.87101746 C61.00319026 128.03864815 61.50017848 130.20542805 63 133 C66.01696409 134.84274976 66.01696409 134.84274976 69 136 C69 136.99 69 137.98 69 139 C53.49 139 37.98 139 22 139 C22 138.01 22 137.02 22 136 C22.94875 135.566875 23.8975 135.13375 24.875 134.6875 C28.20041937 133.20697799 28.20041937 133.20697799 30 130 C30.31281647 126.77803054 30.31281647 126.77803054 30.2746582 123.03759766 C30.2823246 121.98097176 30.2823246 121.98097176 30.29014587 120.90299988 C30.30405094 118.57326775 30.30308423 116.24383121 30.30078125 113.9140625 C30.30466817 112.29364919 30.30900283 110.6732369 30.31376648 109.05282593 C30.321231 105.65497538 30.32093611 102.25722872 30.31567383 98.859375 C30.30988399 94.50917592 30.32679706 90.15940327 30.3500185 85.80927467 C30.36476632 82.46177695 30.36562604 79.11438161 30.36250877 75.76685715 C30.36302163 74.16331514 30.36825271 72.55976735 30.37832069 70.95625687 C30.39068611 68.71095531 30.38389313 66.46648018 30.37231445 64.22119141 C30.37294388 62.94450592 30.3735733 61.66782043 30.3742218 60.35244751 C29.97244277 56.75312992 29.17371944 54.86509106 27 52 C22.32101375 49.66050688 16.03943152 50.40890103 11.15625 51.82421875 C7.48312584 53.27726345 4.29352689 54.80431541 1 57 C0.53103721 60.16526082 0.53103721 60.16526082 0.59594727 63.95654297 C0.58565239 65.02998962 0.58565239 65.02998962 0.57514954 66.12512207 C0.55680512 68.49767745 0.56073031 70.86957621 0.56640625 73.2421875 C0.56184737 74.88884701 0.55654268 76.53550461 0.55052185 78.18215942 C0.54157523 81.63730587 0.54403051 85.09222139 0.55395508 88.54736328 C0.56543399 92.97517447 0.54525834 97.4021869 0.51603794 101.82989311 C0.49768766 105.23228014 0.49796623 108.63447547 0.50367546 112.03689957 C0.50382889 113.66918176 0.4977667 115.30147677 0.48538399 116.93371201 C0.47050094 119.21787225 0.48113009 121.50055392 0.49829102 123.78466797 C0.49845718 125.08435516 0.49862335 126.38404236 0.49879456 127.72311401 C1.08464893 131.55343551 1.93480311 132.70901451 5 135 C5.99 135.33 6.98 135.66 8 136 C8 136.99 8 137.98 8 139 C-7.51 139 -23.02 139 -39 139 C-39 138.01 -39 137.02 -39 136 C-38.05125 135.54625 -37.1025 135.0925 -36.125 134.625 C-32.99686321 133.19761746 -32.99686321 133.19761746 -31 131 C-30.69347433 128.86898284 -30.69347433 128.86898284 -30.73930359 126.37586975 C-30.73221878 125.40141403 -30.72513397 124.42695831 -30.71783447 123.42297363 C-30.72031189 122.35019165 -30.72278931 121.27740967 -30.7253418 120.17211914 C-30.72023087 119.04523178 -30.71511993 117.91834442 -30.70985413 116.75730896 C-30.69590587 113.016538 -30.69691884 109.27595019 -30.69921875 105.53515625 C-30.69533471 102.94445222 -30.69100066 100.35374882 -30.68623352 97.76304626 C-30.67876004 92.32646352 -30.67893321 86.88995229 -30.68432617 81.45336914 C-30.69036687 75.16626371 -30.67805468 68.87938203 -30.6567561 62.59231478 C-30.63703197 56.54813889 -30.63396446 50.5040804 -30.63749123 44.45986748 C-30.63697646 41.88616854 -30.63170989 39.31246614 -30.62167931 36.7387867 C-30.60939212 33.14477248 -30.61606048 29.55128077 -30.62768555 25.95727539 C-30.62004181 24.88651764 -30.61239807 23.81575989 -30.60452271 22.71255493 C-30.61153702 21.73527939 -30.61855133 20.75800385 -30.6257782 19.75111389 C-30.62561046 18.90105302 -30.62544271 18.05099215 -30.62526989 17.17517185 C-31.08786308 14.48998678 -31.87244764 13.65237798 -34 12 C-36.59915538 10.80972016 -36.59915538 10.80972016 -39 10 C-39 9.01 -39 8.02 -39 7 C-33.83959052 5.54266214 -28.67432234 4.1050633 -23.50244141 2.68896484 C-21.88609534 2.24395718 -20.27107271 1.79410121 -18.65771484 1.33837891 C-16.50475446 0.73149472 -14.34723224 0.14475076 -12.1875 -0.4375 C-10.92292969 -0.78683594 -9.65835938 -1.13617188 -8.35546875 -1.49609375 C-5 -2 -5 -2 0 0 Z " fill="#000000" transform="translate(731,85)"/>
<path d="M0 0 C38.28 0 76.56 0 116 0 C116.74126981 4.44761883 117.11874968 8.06256771 117.09765625 12.4921875 C117.09282227 14.29042969 117.09282227 14.29042969 117.08789062 16.125 C117.07532227 17.98125 117.07532227 17.98125 117.0625 19.875 C117.05798828 21.13570312 117.05347656 22.39640625 117.04882812 23.6953125 C117.0370796 26.79692386 117.02065167 29.89843725 117 33 C116.01 33 115.02 33 114 33 C113.66266846 32.35973877 113.32533691 31.71947754 112.9777832 31.05981445 C111.43207328 28.13896482 109.87245819 25.22576306 108.3125 22.3125 C107.78205078 21.30509766 107.25160156 20.29769531 106.70507812 19.25976562 C102.79740965 11.86382415 102.79740965 11.86382415 97 6 C92.34603241 4.69359423 87.4899177 4.66871348 82.6875 4.4375 C81.85154297 4.39431641 81.01558594 4.35113281 80.15429688 4.30664062 C78.10303065 4.20114693 76.0515352 4.10012685 74 4 C74.03716142 19.3163431 74.09701433 34.63248097 74.18390274 49.94861984 C74.22371702 57.06015147 74.25609726 64.17157206 74.27099609 71.28320312 C74.28538883 78.14330991 74.32047248 85.0030602 74.36830902 91.86301422 C74.38317336 94.4832994 74.39104389 97.10363368 74.39188385 99.72396088 C74.39423997 103.3876384 74.42121226 107.05035458 74.45410156 110.71386719 C74.4490712 111.80287323 74.44404083 112.89187927 74.43885803 114.0138855 C74.41904292 119.69089922 74.41904292 119.69089922 76.85931396 124.63995361 C79.4468762 126.28391476 81.76988372 127.04044851 84.75 127.75 C85.73484375 127.99234375 86.7196875 128.2346875 87.734375 128.484375 C88.48203125 128.65453125 89.2296875 128.8246875 90 129 C90 129.99 90 130.98 90 132 C68.88 132 47.76 132 26 132 C26.33 131.01 26.66 130.02 27 129 C29.3984375 128.15625 29.3984375 128.15625 32.375 127.5 C37.37911634 126.40478571 37.37911634 126.40478571 41 123 C41.96429091 120.10712728 42.13544458 118.24482281 42.15821838 115.23542786 C42.1680072 114.25526199 42.17779602 113.27509613 42.18788147 112.26522827 C42.19363693 111.19132843 42.1993924 110.11742859 42.20532227 109.01098633 C42.21522186 107.87913406 42.22512146 106.7472818 42.23532104 105.58113098 C42.26696598 101.83145252 42.29170541 98.08176137 42.31640625 94.33203125 C42.33697318 91.73556688 42.35796958 89.13910588 42.37937927 86.54264832 C42.42897673 80.40164154 42.47423509 74.26061675 42.51740164 68.11956185 C42.5667875 61.12805887 42.62170062 54.13660273 42.67708123 47.14514506 C42.79087705 32.76347404 42.89772132 18.3817573 43 4 C40.14509764 4.11480031 37.2915412 4.24152964 34.4375 4.375 C33.23770508 4.42140625 33.23770508 4.42140625 32.01367188 4.46875 C23.51285838 4.82791875 23.51285838 4.82791875 16.1015625 8.56640625 C10.46683365 16.18372488 6.2691875 24.56811267 2 33 C1.01 33 0.02 33 -1 33 C-1.14690316 21.93329491 -0.61579623 11.08433209 0 0 Z " fill="#000000" transform="translate(386,92)"/>
<path d="M0 0 C1 1 1 1 1.11352539 3.40844727 C1.10567017 4.97163696 1.10567017 4.97163696 1.09765625 6.56640625 C1.09282227 8.2534668 1.09282227 8.2534668 1.08789062 9.97460938 C1.07532227 11.75061523 1.07532227 11.75061523 1.0625 13.5625 C1.05798828 14.75037109 1.05347656 15.93824219 1.04882812 17.16210938 C1.03699675 20.10812226 1.02051287 23.05403681 1 26 C0.01 26 -0.98 26 -2 26 C-3.60644531 23.86035156 -3.60644531 23.86035156 -5.328125 20.890625 C-5.96363281 19.82585937 -6.59914063 18.76109375 -7.25390625 17.6640625 C-8.57384977 15.4064683 -9.88903984 13.14608749 -11.19921875 10.8828125 C-15.43536077 3.8083701 -18.21054844 0.08598736 -26.02734375 -2.73046875 C-37.51059655 -4.29946765 -47.65835679 -2.86417753 -57.3125 3.6875 C-68.82101668 13.10569426 -73.26248447 28.78635042 -74.77294922 43.03320312 C-76.64344829 67.47439097 -77.21889035 95.94231903 -61 116 C-58.20387438 118.50986778 -55.35216163 120.31819877 -52 122 C-51.34773438 122.33773437 -50.69546875 122.67546875 -50.0234375 123.0234375 C-41.31087588 126.69011401 -29.07825547 126.53834791 -20.25 123.375 C-11.03153156 119.49528486 -8.18956202 109.11245185 -4.66210938 100.61523438 C-4.24638672 99.65294922 -3.83066406 98.69066406 -3.40234375 97.69921875 C-3.03616943 96.82096436 -2.66999512 95.94270996 -2.29272461 95.0378418 C-1 93 -1 93 1.15014648 92.20629883 C1.76059814 92.13822021 2.3710498 92.0701416 3 92 C3.05330233 96.61361265 3.05264879 101.22230628 3.00341797 105.8359375 C3.00028722 107.81814726 3.06137007 109.80018862 3.12890625 111.78125 C3.12508957 115.10939332 2.99798107 117.82332787 2 121 C-0.91700557 123.87271264 -4.12567865 124.85042233 -8 126 C-9.74796875 126.56267578 -9.74796875 126.56267578 -11.53125 127.13671875 C-33.11104819 133.70749063 -56.52908152 132.95185709 -77 123 C-80.91904921 120.60331112 -84.47667862 117.94346441 -88 115 C-88.71929687 114.40574219 -89.43859375 113.81148438 -90.1796875 113.19921875 C-101.32935478 103.06907357 -108.30137174 86.89402562 -109.17700195 71.98657227 C-109.62816986 48.64627246 -107.89623745 29.87928559 -92.21875 11.27734375 C-68.20810327 -13.36738696 -29.43866674 -14.58830073 0 0 Z " fill="#000000" transform="translate(374,97)"/>
<path d="M0 0 C10.15270934 9.35952892 13.27376461 19.34392673 14 33 C13.67 35.64 13.34 38.28 13 41 C-6.8 41 -26.6 41 -47 41 C-45.46996111 59.65156968 -45.46996111 59.65156968 -36 75 C-27.25412298 80.39416367 -18.36829713 81.13759828 -8.2421875 79.57421875 C-1.62718729 77.88417951 2.86453037 74.35832289 8 70 C8.99 69.34 9.98 68.68 11 68 C11.99 69.485 11.99 69.485 13 71 C6.20193313 81.59641368 -1.94528064 89.75718021 -14.30078125 93.375 C-29.5507563 95.95155333 -45.22718359 95.21656777 -58.26953125 86.26171875 C-58.84058594 85.84535156 -59.41164063 85.42898437 -60 85 C-61.5159375 83.948125 -61.5159375 83.948125 -63.0625 82.875 C-71.6973675 75.34596022 -76.55172114 63.13535165 -78 52 C-78.8616977 35.52831707 -76.89410912 20.7703604 -65.8125 7.8125 C-49.08340484 -9.77237395 -20.20635474 -16.10193893 0 0 Z M-40.25 1.25 C-47.13197555 12.06453301 -47 23.39486496 -47 36 C-36.11 36 -25.22 36 -14 36 C-10.84432959 26.53298878 -11.82630578 11.9626342 -16 3 C-19.44326758 -1.44000293 -22.81142753 -3.58045099 -28.375 -4.3125 C-33.15885842 -3.74299305 -36.83696511 -2.16303489 -40.25 1.25 Z " fill="#000000" transform="translate(574,133)"/>
<path d="M0 0 C5.44103291 5.46719172 8.27412784 10.09162261 8.375 18 C8.31587237 22.00589717 8.19145642 23.67452409 6.125 27.1875 C2.15816274 30.57097884 -1.16129449 30.33983908 -6.234375 30.2734375 C-10.17646754 29.88368259 -12.17438446 28.75497515 -15 26 C-18.00508791 20.35912413 -18.45983467 15.57614007 -18.5625 9.25 C-18.59696674 7.56751267 -18.63958978 5.88516739 -18.69140625 4.203125 C-18.70373291 3.46739258 -18.71605957 2.73166016 -18.72875977 1.97363281 C-18.89763979 -0.31906312 -18.89763979 -0.31906312 -21 -3 C-26.3664575 -4.23584395 -31.46560325 -3.00678441 -36.15234375 -0.3046875 C-43.70442492 5.02807172 -46.01366434 12.18881876 -48 21 C-50.43656011 36.73275568 -51.18721792 56.10743686 -42.51171875 70.09765625 C-38.20174304 75.52132078 -32.84355964 78.85940673 -26 80 C-14.39261798 80.89412607 -6.79954884 78.92671912 2.25 71.62109375 C4.09559802 70.10234291 4.09559802 70.10234291 5 68 C6.98 68.495 6.98 68.495 9 69 C6.79910234 78.53722321 0.09329548 84.44774222 -7.86328125 89.4921875 C-15.53692105 93.18088608 -22.83841605 94.53754729 -31.3125 94.4375 C-32.68498901 94.42505249 -32.68498901 94.42505249 -34.08520508 94.41235352 C-47.36097528 94.08312472 -57.55518424 90.05160366 -67.21875 80.8984375 C-77.14788551 70.41356679 -80.89671931 57.51647504 -81.3125 43.25 C-80.6473912 28.64531922 -76.42096583 15.54916752 -66 5 C-48.33660104 -10.25069185 -19.20313333 -15.2752197 0 0 Z " fill="#000000" transform="translate(678,133)"/>
<path d="M0 0 C9.24 0 18.48 0 28 0 C28 9.9 28 19.8 28 30 C18.76 30 9.52 30 0 30 C0 20.1 0 10.2 0 0 Z M7 9 C6.92741054 11.18639453 6.91626217 13.37500389 6.9375 15.5625 C6.94652344 16.76003906 6.95554688 17.95757812 6.96484375 19.19140625 C6.97644531 20.11824219 6.98804688 21.04507813 7 22 C9.35270593 23.17635297 10.820752 23.13359359 13.4375 23.125 C14.21996094 23.12757812 15.00242188 23.13015625 15.80859375 23.1328125 C18.17895347 23.08382548 18.17895347 23.08382548 21 22 C21.02685938 19.85423363 21.04633088 17.70837355 21.0625 15.5625 C21.07410156 14.36753906 21.08570313 13.17257813 21.09765625 11.94140625 C21.33901792 9.11126659 21.33901792 9.11126659 20 8 C18.00200428 7.90126184 16.00042842 7.87028201 14 7.875 C12.906875 7.87242188 11.81375 7.86984375 10.6875 7.8671875 C8.08169646 7.69452245 8.08169646 7.69452245 7 9 Z " fill="#010101" transform="translate(133,103)"/>
<path d="M0 0 C1 1 1 1 1.0625 4.5625 C1.041875 5.696875 1.02125 6.83125 1 8 C-1.33294775 8.04241723 -3.66702567 8.04092937 -6 8 C-7 7 -7 7 -7.0625 3.9375 C-7.041875 2.968125 -7.02125 1.99875 -7 1 C-4.51588385 -0.24205807 -2.74800896 -0.14092354 0 0 Z " fill="#010101" transform="translate(150,114)"/>
</svg>
