<?xml version="1.0" standalone="no"?>
<!DOCTYPE svg PUBLIC "-//W3C//DTD SVG 20010904//EN"
 "http://www.w3.org/TR/2001/REC-SVG-20010904/DTD/svg10.dtd">
<svg version="1.0" xmlns="http://www.w3.org/2000/svg"
 width="290.000000pt" height="292.000000pt" viewBox="0 0 290.000000 292.000000"
 preserveAspectRatio="xMidYMid meet">

<g transform="translate(0.000000,292.000000) scale(0.100000,-0.100000)"
fill="#ffffff" stroke="none">
<path d="M1392 2822 c-129 -136 -206 -255 -265 -414 -38 -100 -41 -139 -14
-168 90 -99 114 -146 80 -157 -6 -2 -40 26 -75 63 -126 133 -272 218 -456 264
-133 33 -348 20 -420 -26 -28 -18 -24 -26 41 -67 91 -59 140 -138 213 -347 42
-122 81 -195 140 -265 41 -49 47 -52 136 -75 92 -23 207 -75 269 -121 75 -56
175 -168 204 -230 22 -45 26 -63 17 -66 -8 -3 2 -21 28 -51 67 -75 147 -262
113 -262 -5 0 -29 35 -52 78 -52 92 -122 167 -211 225 -63 42 -180 94 -229
104 -14 2 -29 7 -34 10 -6 3 -60 9 -120 12 -130 7 -150 23 -52 41 141 27 349
-23 476 -115 27 -19 49 -32 49 -27 0 16 -123 154 -171 192 -98 77 -284 170
-310 155 -5 -4 -9 -2 -9 2 0 16 -91 33 -179 33 -95 0 -179 -23 -220 -61 -11
-11 -22 -18 -24 -17 -8 6 -86 -72 -115 -114 -83 -121 -120 -348 -57 -348 9 0
34 14 57 30 100 73 236 78 399 14 288 -112 277 -109 454 -109 103 0 167 -4
180 -12 66 -38 122 -140 167 -307 21 -74 22 -104 23 -361 l0 -280 32 -3 c36
-4 38 -1 68 97 34 110 102 175 217 205 136 35 237 93 365 208 39 35 87 75 107
89 20 13 34 28 33 34 -4 12 -109 34 -167 34 -59 1 -186 -32 -248 -63 -102 -51
-199 -149 -262 -264 -13 -23 -27 -42 -32 -42 -25 0 -21 204 7 335 26 125 113
268 185 307 18 9 71 13 180 14 135 0 162 3 213 22 32 13 66 27 75 32 107 57
215 89 291 84 63 -3 97 -15 170 -62 35 -22 57 -30 63 -24 10 10 6 155 -6 202
-10 44 -28 80 -39 80 -6 0 -8 3 -4 6 20 20 -95 156 -167 198 -110 64 -259 72
-412 21 -213 -70 -354 -187 -459 -380 l-37 -70 33 31 c95 87 243 170 359 201
98 26 343 21 326 -6 -3 -4 -51 -11 -108 -15 -56 -4 -127 -13 -158 -20 -66 -16
-194 -65 -198 -78 -2 -4 -9 -8 -15 -8 -6 0 -42 -21 -80 -47 -66 -45 -197 -176
-197 -198 0 -16 -47 -71 -55 -64 -10 10 21 159 49 232 43 114 84 178 174 271
107 110 253 188 417 222 l86 18 43 66 c61 92 81 134 125 265 65 189 120 274
231 357 34 26 35 27 15 42 -43 32 -170 57 -280 55 -223 -5 -394 -84 -554 -254
-32 -35 -65 -77 -72 -94 -14 -31 -42 -41 -55 -20 -10 17 8 50 82 143 l47 60
-17 65 c-24 88 -93 230 -155 318 -65 93 -175 203 -201 203 -11 0 -33 -13 -48
-28z m8 -752 c5 -63 6 -65 33 -64 69 3 66 -1 69 67 3 59 4 62 30 65 30 4 36
-8 40 -88 l3 -45 37 3 c38 4 77 -22 79 -53 1 -8 2 -21 3 -27 1 -8 22 -15 56
-18 53 -5 55 -6 55 -35 0 -30 -1 -30 -59 -33 l-58 -3 6 -31 c3 -17 6 -36 6
-44 0 -8 16 -14 47 -16 38 -2 49 -7 51 -22 6 -28 -23 -45 -62 -39 l-33 5 -5
-72 c-3 -39 -11 -77 -17 -83 -6 -6 -32 -14 -59 -17 l-47 -5 -5 -70 -5 -70 -30
0 -30 0 -3 73 -3 72 -44 0 -44 0 -5 -42 c-3 -24 -7 -56 -8 -73 -2 -19 -9 -31
-21 -33 -34 -7 -47 17 -47 84 l0 64 -44 0 c-57 0 -70 17 -76 99 l-5 66 -47 0
c-53 0 -73 14 -63 44 5 18 14 21 61 21 l54 0 0 45 0 45 -55 0 c-42 0 -57 4
-62 16 -12 31 11 49 66 52 49 3 51 4 51 33 0 41 24 62 74 65 l41 2 3 53 c4 74
7 81 39 77 27 -3 28 -6 33 -68z m-508 -85 c55 -40 131 -132 158 -189 36 -77
-10 -92 -50 -16 -18 33 -96 135 -142 185 -62 66 -43 76 34 20z m1198 27 c0 -5
-18 -28 -40 -53 -22 -24 -38 -50 -35 -56 2 -7 -1 -12 -7 -10 -6 1 -37 -36 -69
-83 -32 -47 -63 -86 -68 -88 -24 -8 -20 25 9 80 41 80 84 132 145 179 50 39
65 46 65 31z"/>
<path d="M1280 1760 l0 -180 170 0 170 0 0 180 0 180 -170 0 -170 0 0 -180z
m262 82 c12 -12 12 -162 -1 -175 -14 -14 -149 -18 -173 -5 -15 7 -18 23 -18
93 0 69 3 86 18 94 18 11 162 5 174 -7z"/>
<path d="M1404 1786 c-3 -8 -4 -27 -2 -43 3 -25 7 -28 46 -31 l42 -3 0 45 0
46 -40 0 c-26 0 -43 -5 -46 -14z"/>
</g>
</svg>
